<?xml version="1.0" encoding="UTF-8" standalone="no"?>
<svg
   xmlns:dc="http://purl.org/dc/elements/1.1/"
   xmlns:cc="http://creativecommons.org/ns#"
   xmlns:rdf="http://www.w3.org/1999/02/22-rdf-syntax-ns#"
   xmlns:svg="http://www.w3.org/2000/svg"
   xmlns="http://www.w3.org/2000/svg"
   xmlns:xlink="http://www.w3.org/1999/xlink"
   width="210mm"
   height="297mm"
   viewBox="0 0 210 297"
   version="1.1"
   id="svg8">
  <defs
     id="defs2">
    <linearGradient
       id="linearGradient949">
      <stop
         style="stop-color:#ea24d8;stop-opacity:1"
         offset="0"
         id="stop945" />
      <stop
         style="stop-color:#1ecbde;stop-opacity:1"
         offset="1"
         id="stop947" />
    </linearGradient>
    <linearGradient
       id="linearGradient941">
      <stop
         style="stop-color:#1ce4de;stop-opacity:1;"
         offset="0"
         id="stop937" />
      <stop
         style="stop-color:#5e78f3;stop-opacity:1"
         offset="1"
         id="stop939" />
    </linearGradient>
    <linearGradient
       xlink:href="#linearGradient941"
       id="linearGradient943"
       x1="20.010089"
       y1="190.93037"
       x2="121.38462"
       y2="190.93037"
       gradientUnits="userSpaceOnUse"
       gradientTransform="matrix(0.5918647,0,0,0.58438357,8.1668248,48.423373)" />
    <linearGradient
       xlink:href="#linearGradient949"
       id="linearGradient951"
       x1="90"
       y1="160"
       x2="150"
       y2="160"
       gradientUnits="userSpaceOnUse" />
    <linearGradient
       gradientTransform="translate(-266.11999,-7.6026582)"
       gradientUnits="userSpaceOnUse"
       y2="161.3844"
       x2="154.12149"
       y1="160.87755"
       x1="18.616827"
       id="linearGradient912"
       xlink:href="#linearGradient949" />
    <linearGradient
       gradientUnits="userSpaceOnUse"
       y2="159.43571"
       x2="139.0193"
       y1="162.18781"
       x1="32.317734"
       id="linearGradient936"
       xlink:href="#linearGradient949" />
  </defs>
  <metadata
     id="metadata5">
    <rdf:RDF>
      <cc:Work
         rdf:about="">
        <dc:format>image/svg+xml</dc:format>
        <dc:type
           rdf:resource="http://purl.org/dc/dcmitype/StillImage" />
        <dc:title></dc:title>
      </cc:Work>
    </rdf:RDF>
  </metadata>
  <g
     transform="matrix(1.5749416,0,0,2.1704149,-29.320416,-196.26248)"
     id="layer1">
    <g
       id="g955">
      <path
         id="path904"
         d="m -246.24834,218.89478 c -0.68583,-0.46855 -1.24696,-1.01522 -1.24696,-1.21477 0,-0.99767 3.91017,-2.43679 6.63894,-2.4434 1.95165,-0.007 6.22678,-1.16367 7.82146,-2.12029 4.47258,-2.68298 4.85787,-6.07878 4.99691,-44.04351 l 0.10099,-27.59299 -1.14371,-1.93032 c -1.31028,-2.21144 -3.66931,-4.02371 -6.17308,-4.74235 -0.95075,-0.27303 -3.69086,-0.63448 -6.08912,-0.80352 -3.17281,-0.22379 -4.53531,-0.47076 -5.00244,-0.90722 -1.02461,-0.95737 -0.74867,-2.09485 0.69656,-2.87156 1.29159,-0.69413 1.91563,-0.71937 17.79622,-0.71937 14.89884,0 16.48855,-0.0548 16.78299,-0.57905 0.17871,-0.31852 -0.0856,-1.06042 -0.58791,-1.64865 -2.23385,-2.61653 -4.33579,-5.78143 -5.43584,-8.18474 -1.69455,-3.70215 -1.68321,-10.43379 0.0242,-14.23036 3.38681,-7.531698 10.84557,-13.398385 21.64491,-17.024717 6.19252,-2.079404 11.24855,-2.995935 19.46532,-3.52855 9.87842,-0.640357 19.18173,0.310925 33.09532,3.384011 3.12848,0.690979 5.96782,1.183024 6.30961,1.093435 0.3418,-0.08976 1.3733,-1.126659 2.29218,-2.304558 1.96056,-2.513174 3.45426,-3.167972 5.32062,-2.332484 0.685,0.30666 1.47371,1.070708 1.75263,1.697855 0.27882,0.627178 1.48477,6.494218 2.6796,13.03788 2.01092,11.012628 2.1107,11.939718 1.34182,12.465048 -0.90757,0.62008 -4.15094,0.70147 -5.1597,0.12963 -0.33211,-0.18829 -2.07062,-2.2489 -3.86339,-4.57907 -3.62604,-4.71312 -8.41,-8.551998 -14.65056,-11.756388 -12.6359,-6.488257 -26.77101,-7.558567 -37.46375,-2.83683 -6.00192,2.65039 -8.88491,6.04268 -9.24026,10.872648 -0.19625,2.66898 -0.0768,3.21866 1.07522,4.9377 3.79021,5.65633 10.67633,8.4746 31.04719,12.70677 26.6194,5.53035 38.16263,10.89299 44.95062,20.88281 2.65163,3.90239 3.59897,7.02718 3.59897,11.8712 0,9.14846 -3.95692,15.66703 -13.44534,22.14968 -6.71106,4.5851 -13.98357,7.58684 -21.60728,8.91826 -13.66035,2.38574 -28.95139,1.62573 -43.76207,-2.17511 -2.5536,-0.65533 -4.95334,-1.11008 -5.33281,-1.0106 -1.06839,0.28016 -0.98094,23.68535 0.10009,26.83193 1.64726,4.79398 5.00619,6.43283 14.28778,6.97122 4.6338,0.26879 5.63587,0.43371 6.38539,1.05079 1.08532,0.89354 1.14008,1.81597 0.14152,2.38224 -1.62198,0.91972 -4.77828,1.01112 -17.79471,0.51552 -16.63109,-0.63328 -24.07945,-0.63105 -38.10065,0.0105 -6.14691,0.2816 -11.58665,0.51443 -12.08832,0.51735 -0.50164,0.001 -1.4732,-0.3781 -2.15903,-0.84667 z m 87.60221,-38.90191 c 7.64884,-1.23182 14.9356,-5.2329 18.42023,-10.11426 1.61483,-2.26215 1.69035,-2.54557 1.69434,-6.3591 0.004,-3.64154 -0.11955,-4.17189 -1.40667,-6.0497 -3.99214,-5.82417 -11.58572,-9.13609 -32.11774,-14.00808 -10.47728,-2.48613 -17.37006,-4.33868 -21.62855,-5.81302 -4.29666,-1.48755 -4.02589,-2.56164 -4.02589,15.97006 v 16.40318 l 4.08268,2.66496 c 6.47913,4.2292 11.62282,6.20896 19.03172,7.32516 4.1516,0.6255 12.00555,0.61602 15.94988,-0.0193 z"
         style="fill:url(#linearGradient912);fill-opacity:1;stroke-width:0.419904" />
      <path
         id="path928"
         d="m 76.091182,194.74845 c -5.16972,-3.49668 -18.0769,-12.22631 -28.68261,-19.39919 -19.0462,-12.88137 -19.27944,-13.0447 -18.98351,-13.29386 0.16478,-0.13874 5.44579,-4.25936 11.73556,-9.15694 6.28977,-4.89757 12.56441,-9.78422 13.94364,-10.85922 26.85318,-20.92986 27.48311,-21.40899 27.84707,-21.18033 0.35628,0.22384 5.67339,3.80915 11.70365,7.89174 4.90988,3.32407 21.579108,14.60024 34.399848,23.27031 l 10.96447,7.41476 -0.38074,0.32826 c -0.2094,0.18053 -5.5592,4.35688 -11.88844,9.28076 -6.32923,4.92388 -16.30376,12.68456 -22.16562,17.24596 -14.949738,11.63312 -19.046178,14.81534 -19.071668,14.81534 -0.0122,0 -4.25193,-2.86092 -9.42165,-6.35759 z m 11.95444,-16.01189 c -0.0567,-9.45369 -0.15162,-20.69038 -0.21087,-24.97042 l -0.10773,-7.78189 5.35792,0.0472 5.35792,0.0471 1.25644,0.34478 c 2.655208,0.72863 4.627298,1.97104 5.778598,3.64047 0.80143,1.16213 1.11275,2.10708 1.11275,3.37758 0,3.31427 -2.826,6.06301 -7.354288,7.15321 -0.59046,0.14216 -1.7764,0.20619 -4.63476,0.25026 l -3.84126,0.0592 0.10138,4.6496 c 0.0558,2.55727 0.15078,9.8767 0.21116,16.26539 0.0604,6.38869 0.16704,11.60011 0.23702,11.58093 0.12402,-0.034 41.872358,-32.47942 42.958648,-33.38604 l 0.54662,-0.4562 -1.0506,-0.71968 c -1.79454,-1.22929 -5.85447,-3.97913 -17.43017,-11.80568 -6.14445,-4.15437 -16.15487,-10.92614 -22.245398,-15.04836 -6.09053,-4.12223 -11.35867,-7.67453 -11.70699,-7.89399 l -0.6333,-0.39904 -5.83859,4.54379 c -3.21122,2.49908 -10.49138,8.16435 -16.17813,12.58948 -14.90931,11.60166 -26.72557,20.8056 -27.09465,21.10462 l -0.31961,0.25894 10.88714,7.36795 c 5.98793,4.05237 12.5125,8.46695 14.49905,9.81017 1.98654,1.34323 9.01716,6.10195 15.62359,10.57494 l 12.01169,8.13271 1.40479,-1.07425 1.40478,-1.07424 z m -16.04329,-3.17229 c -1.369,-0.27784 -2.84602,-0.83172 -3.95933,-1.48474 -0.98191,-0.57596 -2.77928,-2.29962 -2.77928,-2.66532 0,-0.0995 0.1701,-0.22946 0.37799,-0.28892 0.20789,-0.0595 0.81182,-0.24914 1.34206,-0.42151 l 0.96407,-0.31338 0.35628,0.50676 c 0.55522,0.78973 2.01215,1.76459 3.29743,2.20636 1.06629,0.36651 1.25439,0.39115 2.98593,0.39115 1.74,0 1.91174,-0.0228 2.93992,-0.39045 1.42014,-0.50778 2.17128,-0.97157 2.94702,-1.81963 0.93418,-1.02127 1.29502,-1.96448 1.2137,-3.17256 -0.0891,-1.32405 -0.71555,-2.26483 -2.24901,-3.37757 -1.06769,-0.77476 -1.70414,-1.09093 -6.78358,-3.36986 -5.05938,-2.26993 -6.92502,-3.667 -7.8946,-5.9118 -0.46317,-1.07234 -0.50973,-2.70965 -0.10878,-3.82483 0.97372,-2.70823 4.11791,-4.87822 7.8703,-5.43175 1.60623,-0.23694 2.43974,-0.23985 4.06527,-0.0142 2.16198,0.30016 4.06849,1.08356 5.55317,2.28182 0.7827,0.63171 1.76563,1.74165 1.76877,1.99733 0.002,0.12096 -2.65926,0.98125 -2.75148,0.88963 -0.0237,-0.0235 -0.24358,-0.29701 -0.48864,-0.60772 -0.24507,-0.31072 -0.82988,-0.81566 -1.29958,-1.1221 -2.20552,-1.43892 -5.12929,-1.77801 -7.76908,-0.90105 -1.31914,0.43823 -2.86366,1.5374 -3.52026,2.50522 -0.51929,0.76543 -0.54896,0.88177 -0.54896,2.15267 0,1.24008 0.0374,1.39711 0.48604,2.03972 1.05865,1.51639 2.5732,2.44743 7.49375,4.60664 3.84891,1.68895 5.04106,2.32563 6.55003,3.49812 1.86514,1.44923 2.6931,2.93697 2.68682,4.82786 -0.0104,3.14411 -2.47361,5.78515 -6.46492,6.93179 -1.19705,0.3439 -1.56433,0.39047 -3.35991,0.42604 -1.43074,0.0284 -2.27872,-0.0134 -2.92114,-0.14376 z m 26.07437,-17.06328 c 2.144848,-0.40538 3.778558,-1.37722 4.774498,-2.84017 0.60993,-0.89594 0.63153,-0.97185 0.63153,-2.22001 0,-1.24827 -0.0215,-1.32399 -0.63153,-2.21945 -1.04167,-1.52918 -2.934448,-2.59311 -5.157538,-2.89904 -0.49094,-0.0676 -2.243065,-0.12283 -3.89361,-0.12283 h -3.00099 v 5.24189 5.24189 h 3.15662 c 2.259435,0 3.43073,-0.0518 4.12102,-0.18228 z"
         style="fill:url(#linearGradient936);stroke-width:0.143106;fill-opacity:1.0" />
    </g>
  </g>
</svg>
